<svg xmlns="http://www.w3.org/2000/svg" xmlns:xlink="http://www.w3.org/1999/xlink" version="1.1" data-diagram-type="DESCRIPTION" style="width:2400px;height:804px;background:#F7FAFC;" width="2400px" height="804px" viewBox="0 0 2400 804" zoomAndPan="magnify" preserveAspectRatio="none" contentStyleType="text/css"><?plantuml 1.2026.8beta1?><defs/><g font-family="sans-serif" lengthAdjust="spacing"><rect x="0" y="0" width="2400" height="804" fill="#F7FAFC" style="stroke:none;"/><g class="title" data-source-line="21"><text x="1018.468" y="22.995" fill="#000" font-size="14" textLength="356.063" font-weight="700" font-family="Arial">Step 2 - Refine and Sequence Domain Events</text></g><!--cluster p1--><g class="cluster" data-qualified-name="p1" id="ent0001" data-source-line="26"><path d="M26,43.297 L216.943,43.297 A9,9 0 0 1 222.943,49.297 L229.943,65.594 L565,65.594 A6,6 0 0 1 571,71.594 L571,140.887 A6,6 0 0 1 565,146.887 L26,146.887 A6,6 0 0 1 20,140.887 L20,49.297 A6,6 0 0 1 26,43.297" style="stroke:#829AB1;stroke-width:1.5;" fill="#EDF5FC"/><line x1="20" y1="65.594" x2="229.943" y2="65.594" style="stroke:#829AB1;stroke-width:1.5;"/><text x="24" y="58.292" fill="#102A43" font-size="14" textLength="196.943" font-weight="700" font-family="Arial">Commercial Engagement</text></g><!--cluster p2--><g class="cluster" data-qualified-name="p2" id="ent0005" data-source-line="32"><path d="M57,170.887 L205.779,170.887 A9,9 0 0 1 211.779,176.887 L218.779,193.184 L581,193.184 A6,6 0 0 1 587,199.184 L587,268.477 A6,6 0 0 1 581,274.477 L57,274.477 A6,6 0 0 1 51,268.477 L51,176.887 A6,6 0 0 1 57,170.887" style="stroke:#829AB1;stroke-width:1.5;" fill="#EDF5FC"/><line x1="51" y1="193.184" x2="218.779" y2="193.184" style="stroke:#829AB1;stroke-width:1.5;"/><text x="55" y="185.882" fill="#102A43" font-size="14" textLength="154.779" font-weight="700" font-family="Arial">Identity and Access</text></g><!--cluster p3--><g class="cluster" data-qualified-name="p3" id="ent0013" data-source-line="42"><path d="M12,298.477 L243.214,298.477 A9,9 0 0 1 249.214,304.477 L256.214,320.774 L840,320.774 A6,6 0 0 1 846,326.774 L846,396.077 A6,6 0 0 1 840,402.077 L12,402.077 A6,6 0 0 1 6,396.077 L6,304.477 A6,6 0 0 1 12,298.477" style="stroke:#829AB1;stroke-width:1.5;" fill="#EDF5FC"/><line x1="6" y1="320.774" x2="256.214" y2="320.774" style="stroke:#829AB1;stroke-width:1.5;"/><text x="10" y="313.472" fill="#102A43" font-size="14" textLength="237.214" font-weight="700" font-family="Arial">Raw Materials and Production</text></g><!--cluster p4--><g class="cluster" data-qualified-name="p4" id="ent0021" data-source-line="52"><path d="M73,426.077 L267.088,426.077 A9,9 0 0 1 273.088,432.077 L280.088,448.374 L930,448.374 A6,6 0 0 1 936,454.374 L936,523.667 A6,6 0 0 1 930,529.667 L73,529.667 A6,6 0 0 1 67,523.667 L67,432.077 A6,6 0 0 1 73,426.077" style="stroke:#829AB1;stroke-width:1.5;" fill="#EDF5FC"/><line x1="67" y1="448.374" x2="280.088" y2="448.374" style="stroke:#829AB1;stroke-width:1.5;"/><text x="71" y="441.072" fill="#102A43" font-size="14" textLength="200.088" font-weight="700" font-family="Arial">Quality, Yield, and Waste</text></g><!--cluster p5--><g class="cluster" data-qualified-name="p5" id="ent0031" data-source-line="64"><path d="M966,426.077 L1254.54,426.077 A9,9 0 0 1 1260.54,432.077 L1267.54,448.374 L2379,448.374 A6,6 0 0 1 2385,454.374 L2385,636.267 A6,6 0 0 1 2379,642.267 L966,642.267 A6,6 0 0 1 960,636.267 L960,432.077 A6,6 0 0 1 966,426.077" style="stroke:#829AB1;stroke-width:1.5;" fill="#EDF5FC"/><line x1="960" y1="448.374" x2="1267.54" y2="448.374" style="stroke:#829AB1;stroke-width:1.5;"/><text x="964" y="441.072" fill="#102A43" font-size="14" textLength="294.54" font-weight="700" font-family="Arial">Assets, Monitoring, and Maintenance</text></g><!--cluster p6--><g class="cluster" data-qualified-name="p6" id="ent0048" data-source-line="83"><path d="M941,666.267 L1013.299,666.267 A9,9 0 0 1 1019.299,672.267 L1026.299,688.564 L1304,688.564 A6,6 0 0 1 1310,694.564 L1310,763.857 A6,6 0 0 1 1304,769.857 L941,769.857 A6,6 0 0 1 935,763.857 L935,672.267 A6,6 0 0 1 941,666.267" style="stroke:#829AB1;stroke-width:1.5;" fill="#EDF5FC"/><line x1="935" y1="688.564" x2="1026.299" y2="688.564" style="stroke:#829AB1;stroke-width:1.5;"/><text x="939" y="681.262" fill="#102A43" font-size="14" textLength="78.299" font-weight="700" font-family="Arial">Reporting</text></g><!--entity c01--><g class="entity" data-qualified-name="p1.c01" id="ent0002" data-source-line="27"><rect x="36.41" y="78.297" width="157.184" height="52.594" fill="#FFB26B" style="stroke:#B85C00;stroke-width:0.5;" rx="5" ry="5"/><text x="46.41" y="101.292" fill="#422006" font-size="14" textLength="137.184" font-family="Arial">Commercial Inquiry</text><text x="46.41" y="117.589" fill="#422006" font-size="14" textLength="72.652" font-family="Arial">Submitted</text></g><!--entity h01--><g class="entity" data-qualified-name="p1.h01" id="ent0003" data-source-line="28"><rect x="228.75" y="78.297" width="326.496" height="52.594" fill="#FF8A80" style="stroke:#B85C00;stroke-width:0.5;" rx="5" ry="5"/><text x="238.75" y="101.292" fill="#422006" font-size="14" textLength="306.496" font-family="Arial">How does an inquiry become a subscription</text><text x="238.75" y="117.589" fill="#422006" font-size="14" textLength="195.897" font-family="Arial">and an onboarded rice mill?</text></g><!--entity a01--><g class="entity" data-qualified-name="p2.a01" id="ent0006" data-source-line="33"><rect x="67.12" y="205.887" width="95.77" height="52.594" fill="#FFB26B" style="stroke:#B85C00;stroke-width:0.5;" rx="5" ry="5"/><text x="77.12" y="228.882" fill="#422006" font-size="14" textLength="31.91" font-family="Arial">User</text><text x="77.12" y="245.179" fill="#422006" font-size="14" textLength="75.77" font-family="Arial">Registered</text></g><!--entity a02--><g class="entity" data-qualified-name="p2.a02" id="ent0007" data-source-line="34"><rect x="198.34" y="205.887" width="83.314" height="52.594" fill="#FFB26B" style="stroke:#B85C00;stroke-width:0.5;" rx="5" ry="5"/><text x="208.34" y="228.882" fill="#422006" font-size="14" textLength="30.796" font-family="Arial">Role</text><text x="208.34" y="245.179" fill="#422006" font-size="14" textLength="63.314" font-family="Arial">Assigned</text></g><!--entity a03--><g class="entity" data-qualified-name="p2.a03" id="ent0008" data-source-line="35"><rect x="316.53" y="205.887" width="118.943" height="52.594" fill="#FFB26B" style="stroke:#B85C00;stroke-width:0.5;" rx="5" ry="5"/><text x="326.53" y="228.882" fill="#422006" font-size="14" textLength="31.91" font-family="Arial">User</text><text x="326.53" y="245.179" fill="#422006" font-size="14" textLength="98.943" font-family="Arial">Authenticated</text></g><!--entity a04--><g class="entity" data-qualified-name="p2.a04" id="ent0009" data-source-line="36"><rect x="470.78" y="205.887" width="100.445" height="52.594" fill="#FFB26B" style="stroke:#B85C00;stroke-width:0.5;" rx="5" ry="5"/><text x="480.78" y="228.882" fill="#422006" font-size="14" textLength="80.445" font-family="Arial">User Profile</text><text x="480.78" y="245.179" fill="#422006" font-size="14" textLength="59.589" font-family="Arial">Updated</text></g><!--entity pr01--><g class="entity" data-qualified-name="p3.pr01" id="ent0014" data-source-line="43"><rect x="22.06" y="333.477" width="185.888" height="52.594" fill="#FFB26B" style="stroke:#B85C00;stroke-width:0.5;" rx="5" ry="5"/><text x="32.06" y="356.472" fill="#422006" font-size="14" textLength="165.888" font-family="Arial">Raw Material Reception</text><text x="32.06" y="372.769" fill="#422006" font-size="14" textLength="66.746" font-family="Arial">Recorded</text></g><!--entity pr02--><g class="entity" data-qualified-name="p3.pr02" id="ent0015" data-source-line="44"><rect x="243.11" y="333.477" width="155.775" height="52.594" fill="#FFB26B" style="stroke:#B85C00;stroke-width:0.5;" rx="5" ry="5"/><text x="253.11" y="356.472" fill="#422006" font-size="14" textLength="135.775" font-family="Arial">Raw Material Batch</text><text x="253.11" y="372.769" fill="#422006" font-size="14" textLength="75.77" font-family="Arial">Registered</text></g><!--entity pr03--><g class="entity" data-qualified-name="p3.pr03" id="ent0016" data-source-line="45"><rect x="433.61" y="333.477" width="180.774" height="52.594" fill="#FFB26B" style="stroke:#B85C00;stroke-width:0.5;" rx="5" ry="5"/><text x="443.61" y="356.472" fill="#422006" font-size="14" textLength="160.774" font-family="Arial">Production Information</text><text x="443.61" y="372.769" fill="#422006" font-size="14" textLength="66.746" font-family="Arial">Recorded</text></g><!--entity pr04--><g class="entity" data-qualified-name="p3.pr04" id="ent0017" data-source-line="46"><rect x="649.61" y="333.477" width="180.774" height="52.594" fill="#FFB26B" style="stroke:#B85C00;stroke-width:0.5;" rx="5" ry="5"/><text x="659.61" y="356.472" fill="#422006" font-size="14" textLength="160.774" font-family="Arial">Production Information</text><text x="659.61" y="372.769" fill="#422006" font-size="14" textLength="59.589" font-family="Arial">Updated</text></g><!--entity q01--><g class="entity" data-qualified-name="p4.q01" id="ent0022" data-source-line="53"><rect x="83.17" y="461.077" width="125.656" height="52.594" fill="#FFB26B" style="stroke:#B85C00;stroke-width:0.5;" rx="5" ry="5"/><text x="93.17" y="484.072" fill="#422006" font-size="14" textLength="105.656" font-family="Arial">Quality Results</text><text x="93.17" y="500.369" fill="#422006" font-size="14" textLength="66.746" font-family="Arial">Recorded</text></g><!--entity q02--><g class="entity" data-qualified-name="p4.q02" id="ent0023" data-source-line="54"><rect x="244.1" y="461.077" width="141.81" height="52.594" fill="#FFB26B" style="stroke:#B85C00;stroke-width:0.5;" rx="5" ry="5"/><text x="254.1" y="484.072" fill="#422006" font-size="14" textLength="121.81" font-family="Arial">Rice Composition</text><text x="254.1" y="500.369" fill="#422006" font-size="14" textLength="74.272" font-family="Arial">Calculated</text></g><!--entity q03--><g class="entity" data-qualified-name="p4.q03" id="ent0024" data-source-line="55"><rect x="421.35" y="461.077" width="143.307" height="52.594" fill="#FFB26B" style="stroke:#B85C00;stroke-width:0.5;" rx="5" ry="5"/><text x="431.35" y="484.072" fill="#422006" font-size="14" textLength="123.307" font-family="Arial">Production Waste</text><text x="431.35" y="500.369" fill="#422006" font-size="14" textLength="66.746" font-family="Arial">Recorded</text></g><!--entity q04--><g class="entity" data-qualified-name="p4.q04" id="ent0025" data-source-line="56"><rect x="599.28" y="461.077" width="127.44" height="52.594" fill="#FFB26B" style="stroke:#B85C00;stroke-width:0.5;" rx="5" ry="5"/><text x="609.28" y="484.072" fill="#422006" font-size="14" textLength="107.44" font-family="Arial">Yield Indicators</text><text x="609.28" y="500.369" fill="#422006" font-size="14" textLength="74.272" font-family="Arial">Calculated</text></g><!--entity q05--><g class="entity" data-qualified-name="p4.q05" id="ent0026" data-source-line="57"><rect x="762.19" y="461.077" width="157.614" height="52.594" fill="#FFB26B" style="stroke:#B85C00;stroke-width:0.5;" rx="5" ry="5"/><text x="772.19" y="484.072" fill="#422006" font-size="14" textLength="107.078" font-family="Arial">Quality or Yield</text><text x="772.19" y="500.369" fill="#422006" font-size="14" textLength="137.614" font-family="Arial">Deviation Identified</text></g><!--entity m01--><g class="entity" data-qualified-name="p5.m01" id="ent0032" data-source-line="65"><rect x="976.12" y="573.667" width="95.77" height="52.594" fill="#FFB26B" style="stroke:#B85C00;stroke-width:0.5;" rx="5" ry="5"/><text x="986.12" y="596.662" fill="#422006" font-size="14" textLength="58.604" font-family="Arial">Machine</text><text x="986.12" y="612.959" fill="#422006" font-size="14" textLength="75.77" font-family="Arial">Registered</text></g><!--entity m02--><g class="entity" data-qualified-name="p5.m02" id="ent0033" data-source-line="66"><rect x="1328.82" y="573.667" width="164.361" height="52.594" fill="#FFB26B" style="stroke:#B85C00;stroke-width:0.5;" rx="5" ry="5"/><text x="1338.82" y="596.662" fill="#422006" font-size="14" textLength="144.361" font-family="Arial">Operational Variable</text><text x="1338.82" y="612.959" fill="#422006" font-size="14" textLength="66.746" font-family="Arial">Recorded</text></g><!--entity m03--><g class="entity" data-qualified-name="p5.m03" id="ent0034" data-source-line="67"><rect x="1528" y="573.667" width="167.998" height="52.594" fill="#FFB26B" style="stroke:#B85C00;stroke-width:0.5;" rx="5" ry="5"/><text x="1538" y="596.662" fill="#422006" font-size="14" textLength="147.998" font-family="Arial">Operational Anomaly</text><text x="1538" y="612.959" fill="#422006" font-size="14" textLength="64.183" font-family="Arial">Detected</text></g><!--entity m04--><g class="entity" data-qualified-name="p5.m04" id="ent0035" data-source-line="68"><rect x="1731.04" y="573.667" width="139.916" height="52.594" fill="#FFB26B" style="stroke:#B85C00;stroke-width:0.5;" rx="5" ry="5"/><text x="1741.04" y="596.662" fill="#422006" font-size="14" textLength="119.916" font-family="Arial">Operational Alert</text><text x="1741.04" y="612.959" fill="#422006" font-size="14" textLength="74.272" font-family="Arial">Generated</text></g><!--entity m05--><g class="entity" data-qualified-name="p5.m05" id="ent0036" data-source-line="69"><rect x="1905.87" y="573.667" width="238.258" height="52.594" fill="#FFB26B" style="stroke:#B85C00;stroke-width:0.5;" rx="5" ry="5"/><text x="1915.87" y="596.662" fill="#422006" font-size="14" textLength="218.258" font-family="Arial">Maintenance Recommendation</text><text x="1915.87" y="612.959" fill="#422006" font-size="14" textLength="74.272" font-family="Arial">Generated</text></g><!--entity m06--><g class="entity" data-qualified-name="p5.m06" id="ent0037" data-source-line="70"><rect x="2179.27" y="573.667" width="189.47" height="52.594" fill="#FFB26B" style="stroke:#B85C00;stroke-width:0.5;" rx="5" ry="5"/><text x="2189.27" y="596.662" fill="#422006" font-size="14" textLength="169.47" font-family="Arial">Preventive Maintenance</text><text x="2189.27" y="612.959" fill="#422006" font-size="14" textLength="66.746" font-family="Arial">Recorded</text></g><!--entity m07--><g class="entity" data-qualified-name="p5.m07" id="ent0038" data-source-line="71"><rect x="1106.48" y="573.667" width="187.05" height="52.594" fill="#FFB26B" style="stroke:#B85C00;stroke-width:0.5;" rx="5" ry="5"/><text x="1116.48" y="596.662" fill="#422006" font-size="14" textLength="167.05" font-family="Arial">Corrective Maintenance</text><text x="1116.48" y="612.959" fill="#422006" font-size="14" textLength="66.746" font-family="Arial">Recorded</text></g><!--entity h02--><g class="entity" data-qualified-name="p5.h02" id="ent0039" data-source-line="72"><rect x="1280.75" y="461.077" width="260.509" height="52.594" fill="#FF8A80" style="stroke:#B85C00;stroke-width:0.5;" rx="5" ry="5"/><text x="1290.75" y="484.072" fill="#422006" font-size="14" textLength="240.509" font-family="Arial">Is the variable recorded manually,</text><text x="1290.75" y="500.369" fill="#422006" font-size="14" textLength="228.484" font-family="Arial">received from a sensor, or both?</text></g><!--entity r02--><g class="entity" data-qualified-name="p6.r02" id="ent0049" data-source-line="84"><rect x="950.74" y="701.267" width="146.526" height="52.594" fill="#FFB26B" style="stroke:#B85C00;stroke-width:0.5;" rx="5" ry="5"/><text x="960.74" y="724.262" fill="#422006" font-size="14" textLength="126.526" font-family="Arial">Production Report</text><text x="960.74" y="740.559" fill="#422006" font-size="14" textLength="74.272" font-family="Arial">Generated</text></g><!--entity r03--><g class="entity" data-qualified-name="p6.r03" id="ent0050" data-source-line="85"><rect x="1132.18" y="701.267" width="161.647" height="52.594" fill="#FFB26B" style="stroke:#B85C00;stroke-width:0.5;" rx="5" ry="5"/><text x="1142.18" y="724.262" fill="#422006" font-size="14" textLength="141.647" font-family="Arial">Maintenance Report</text><text x="1142.18" y="740.559" fill="#422006" font-size="14" textLength="74.272" font-family="Arial">Generated</text></g><!--link c01 to h01--><g class="link" data-entity-1="ent0002" data-entity-2="ent0003" id="lnk4" data-source-line="29" data-link-type="dependency"><path d="M194.01,104.857 C204.96,104.857 211.53,104.857 223.35,104.857" style="stroke:#334E68;stroke-width:1.5;stroke-dasharray:7,7;" fill="none" id="c01-to-h01"/><polygon points="228.35,104.857,219.35,100.857,223.35,104.857,219.35,108.857,228.35,104.857" fill="#334E68" style="stroke:#334E68;stroke-width:1.5;stroke-linejoin:miter;stroke-miterlimit:10;"/><text x="141.68" y="118.852" fill="#000" font-size="14" textLength="139.002" font-family="Arial">unspecified process</text></g><!--link a01 to a02--><g class="link" data-entity-1="ent0006" data-entity-2="ent0007" id="lnk10" data-source-line="37" data-link-type="dependency"><path d="M163.33,232.857 C174.73,232.857 181.8,232.857 192.91,232.857" style="stroke:#334E68;stroke-width:1.5;" fill="none" id="a01-to-a02"/><polygon points="197.91,232.857,188.91,228.857,192.91,232.857,188.91,236.857,197.91,232.857" fill="#334E68" style="stroke:#334E68;stroke-width:1.5;stroke-linejoin:miter;stroke-miterlimit:10;"/></g><!--link a02 to a03--><g class="link" data-entity-1="ent0007" data-entity-2="ent0008" id="lnk11" data-source-line="38" data-link-type="dependency"><path d="M281.91,232.857 C292.84,232.857 299.83,232.857 311.48,232.857" style="stroke:#334E68;stroke-width:1.5;" fill="none" id="a02-to-a03"/><polygon points="316.48,232.857,307.48,228.857,311.48,232.857,307.48,236.857,316.48,232.857" fill="#334E68" style="stroke:#334E68;stroke-width:1.5;stroke-linejoin:miter;stroke-miterlimit:10;"/></g><!--link a03 to a04--><g class="link" data-entity-1="ent0008" data-entity-2="ent0009" id="lnk12" data-source-line="39" data-link-type="dependency"><path d="M435.81,232.857 C447.36,232.857 454.35,232.857 465.56,232.857" style="stroke:#334E68;stroke-width:1.5;" fill="none" id="a03-to-a04"/><polygon points="470.56,232.857,461.56,228.857,465.56,232.857,461.56,236.857,470.56,232.857" fill="#334E68" style="stroke:#334E68;stroke-width:1.5;stroke-linejoin:miter;stroke-miterlimit:10;"/></g><!--link pr01 to pr02--><g class="link" data-entity-1="ent0014" data-entity-2="ent0015" id="lnk18" data-source-line="47" data-link-type="dependency"><path d="M208.36,359.857 C219.85,359.857 226.51,359.857 237.75,359.857" style="stroke:#334E68;stroke-width:1.5;" fill="none" id="pr01-to-pr02"/><polygon points="242.75,359.857,233.75,355.857,237.75,359.857,233.75,363.857,242.75,359.857" fill="#334E68" style="stroke:#334E68;stroke-width:1.5;stroke-linejoin:miter;stroke-miterlimit:10;"/></g><!--link pr02 to pr03--><g class="link" data-entity-1="ent0015" data-entity-2="ent0016" id="lnk19" data-source-line="48" data-link-type="dependency"><path d="M399.19,359.857 C410.36,359.857 416.93,359.857 428.31,359.857" style="stroke:#334E68;stroke-width:1.5;" fill="none" id="pr02-to-pr03"/><polygon points="433.31,359.857,424.31,355.857,428.31,359.857,424.31,363.857,433.31,359.857" fill="#334E68" style="stroke:#334E68;stroke-width:1.5;stroke-linejoin:miter;stroke-miterlimit:10;"/></g><!--link pr03 to pr04--><g class="link" data-entity-1="ent0016" data-entity-2="ent0017" id="lnk20" data-source-line="49" data-link-type="dependency"><path d="M614.66,359.857 C626.09,359.857 632.79,359.857 644.22,359.857" style="stroke:#334E68;stroke-width:1.5;" fill="none" id="pr03-to-pr04"/><polygon points="649.22,359.857,640.22,355.857,644.22,359.857,640.22,363.857,649.22,359.857" fill="#334E68" style="stroke:#334E68;stroke-width:1.5;stroke-linejoin:miter;stroke-miterlimit:10;"/></g><!--link q01 to q02--><g class="link" data-entity-1="ent0022" data-entity-2="ent0023" id="lnk27" data-source-line="58" data-link-type="dependency"><path d="M208.93,487.857 C220.28,487.857 227.2,487.857 238.77,487.857" style="stroke:#334E68;stroke-width:1.5;" fill="none" id="q01-to-q02"/><polygon points="243.77,487.857,234.77,483.857,238.77,487.857,234.77,491.857,243.77,487.857" fill="#334E68" style="stroke:#334E68;stroke-width:1.5;stroke-linejoin:miter;stroke-miterlimit:10;"/></g><!--link q02 to q04--><g class="link" data-entity-1="ent0023" data-entity-2="ent0025" id="lnk28" data-source-line="59" data-link-type="dependency"><path d="M315,460.637 C315,448.517 315,436.857 315,436.857 C315,436.857 606.83,436.857 606.83,436.857 C606.83,436.857 606.83,443.517 606.83,455.637" style="stroke:#334E68;stroke-width:1.5;" fill="none" id="q02-to-q04"/><polygon points="606.83,460.637,610.83,451.637,606.83,455.637,602.83,451.637,606.83,460.637" fill="#334E68" style="stroke:#334E68;stroke-width:1.5;stroke-linejoin:miter;stroke-miterlimit:10;"/></g><!--link q03 to q04--><g class="link" data-entity-1="ent0024" data-entity-2="ent0025" id="lnk29" data-source-line="60" data-link-type="dependency"><path d="M565.1,487.857 C576.32,487.857 582.85,487.857 593.87,487.857" style="stroke:#334E68;stroke-width:1.5;" fill="none" id="q03-to-q04"/><polygon points="598.87,487.857,589.87,483.857,593.87,487.857,589.87,491.857,598.87,487.857" fill="#334E68" style="stroke:#334E68;stroke-width:1.5;stroke-linejoin:miter;stroke-miterlimit:10;"/></g><!--link q04 to q05--><g class="link" data-entity-1="ent0025" data-entity-2="ent0026" id="lnk30" data-source-line="61" data-link-type="dependency"><path d="M727.01,487.857 C738.27,487.857 745.12,487.857 756.74,487.857" style="stroke:#334E68;stroke-width:1.5;" fill="none" id="q04-to-q05"/><polygon points="761.74,487.857,752.74,483.857,756.74,487.857,752.74,491.857,761.74,487.857" fill="#334E68" style="stroke:#334E68;stroke-width:1.5;stroke-linejoin:miter;stroke-miterlimit:10;"/></g><!--link m01 to m02--><g class="link" data-entity-1="ent0032" data-entity-2="ent0033" id="lnk40" data-source-line="73" data-link-type="dependency"><path d="M1039.96,573.347 C1039.96,567.937 1039.96,563.857 1039.96,563.857 C1039.96,563.857 1383.61,563.857 1383.61,563.857 C1383.61,563.857 1383.61,562.937 1383.61,568.347" style="stroke:#334E68;stroke-width:1.5;" fill="none" id="m01-to-m02"/><polygon points="1383.61,573.347,1387.61,564.347,1383.61,568.347,1379.61,564.347,1383.61,573.347" fill="#334E68" style="stroke:#334E68;stroke-width:1.5;stroke-linejoin:miter;stroke-miterlimit:10;"/></g><!--link m02 to m03--><g class="link" data-entity-1="ent0033" data-entity-2="ent0034" id="lnk41" data-source-line="74" data-link-type="dependency"><path d="M1493.62,600.857 C1504.89,600.857 1511.46,600.857 1522.75,600.857" style="stroke:#334E68;stroke-width:1.5;" fill="none" id="m02-to-m03"/><polygon points="1527.75,600.857,1518.75,596.857,1522.75,600.857,1518.75,604.857,1527.75,600.857" fill="#334E68" style="stroke:#334E68;stroke-width:1.5;stroke-linejoin:miter;stroke-miterlimit:10;"/></g><!--link m03 to m04--><g class="link" data-entity-1="ent0034" data-entity-2="ent0035" id="lnk42" data-source-line="75" data-link-type="dependency"><path d="M1696.27,600.857 C1707.79,600.857 1714.51,600.857 1725.75,600.857" style="stroke:#334E68;stroke-width:1.5;" fill="none" id="m03-to-m04"/><polygon points="1730.75,600.857,1721.75,596.857,1725.75,600.857,1721.75,604.857,1730.75,600.857" fill="#334E68" style="stroke:#334E68;stroke-width:1.5;stroke-linejoin:miter;stroke-miterlimit:10;"/></g><!--link m03 to m05--><g class="link" data-entity-1="ent0034" data-entity-2="ent0036" id="lnk43" data-source-line="76" data-link-type="dependency"><path d="M1618.63,573.407 C1618.63,563.157 1618.63,553.857 1618.63,553.857 C1618.63,553.857 2064.71,553.857 2064.71,553.857 C2064.71,553.857 2064.71,558.157 2064.71,568.407" style="stroke:#334E68;stroke-width:1.5;" fill="none" id="m03-to-m05"/><polygon points="2064.71,573.407,2068.71,564.407,2064.71,568.407,2060.71,564.407,2064.71,573.407" fill="#334E68" style="stroke:#334E68;stroke-width:1.5;stroke-linejoin:miter;stroke-miterlimit:10;"/></g><!--link m01 to m06--><g class="link" data-entity-1="ent0032" data-entity-2="ent0037" id="lnk44" data-source-line="77" data-link-type="dependency"><path d="M1008.04,573.347 C1008.04,551.397 1008.04,523.857 1008.04,523.857 C1008.04,523.857 2274,523.857 2274,523.857 C2274,523.857 2274,546.397 2274,568.347" style="stroke:#334E68;stroke-width:1.5;" fill="none" id="m01-to-m06"/><polygon points="2274,573.347,2278,564.347,2274,568.347,2270,564.347,2274,573.347" fill="#334E68" style="stroke:#334E68;stroke-width:1.5;stroke-linejoin:miter;stroke-miterlimit:10;"/></g><!--link m04 to m07--><g class="link" data-entity-1="ent0035" data-entity-2="ent0038" id="lnk45" data-source-line="78" data-link-type="dependency"><path d="M1801,573.227 C1801,558.777 1801,543.857 1801,543.857 C1801,543.857 1289.27,543.857 1289.27,543.857 C1289.27,543.857 1289.27,553.777 1289.27,568.227" style="stroke:#334E68;stroke-width:1.5;" fill="none" id="m04-to-m07"/><polygon points="1289.27,573.227,1293.27,564.227,1289.27,568.227,1285.27,564.227,1289.27,573.227" fill="#334E68" style="stroke:#334E68;stroke-width:1.5;stroke-linejoin:miter;stroke-miterlimit:10;"/></g><!--link m05 to m07--><g class="link" data-entity-1="ent0036" data-entity-2="ent0038" id="lnk46" data-source-line="79" data-link-type="dependency"><path d="M1985.29,573.457 C1985.29,555.067 1985.29,533.857 1985.29,533.857 C1985.29,533.857 1285.01,533.857 1285.01,533.857 C1285.01,533.857 1285.01,550.067 1285.01,568.457" style="stroke:#334E68;stroke-width:1.5;" fill="none" id="m05-to-m07"/><polygon points="1285.01,573.457,1289.01,564.457,1285.01,568.457,1281.01,564.457,1285.01,573.457" fill="#334E68" style="stroke:#334E68;stroke-width:1.5;stroke-linejoin:miter;stroke-miterlimit:10;"/></g><!--link h02 to m02--><g class="link" data-entity-1="ent0039" data-entity-2="ent0033" id="lnk47" data-source-line="80" data-link-type="dependency"><path d="M1438.39,514.057 C1438.39,532.007 1438.39,550.567 1438.39,568.477" style="stroke:#334E68;stroke-width:1.5;stroke-dasharray:7,7;" fill="none" id="h02-to-m02"/><polygon points="1438.39,573.477,1442.39,564.477,1438.39,568.477,1434.39,564.477,1438.39,573.477" fill="#334E68" style="stroke:#334E68;stroke-width:1.5;stroke-linejoin:miter;stroke-miterlimit:10;"/></g><!--link r02 to r03--><!--link c01 to a01--><!--link a01 to pr01--><!--link pr01 to q01--><!--link q01 to m01--><!--link m01 to r02--><!--link pr03 to q01--><g class="link" data-entity-1="ent0016" data-entity-2="ent0022" id="lnk57" data-source-line="95" data-link-type="dependency"><path d="M477.29,386.427 C477.29,399.237 477.29,411.857 477.29,411.857 C477.29,411.857 166.35,411.857 166.35,411.857 C166.35,411.857 166.35,434.187 166.35,455.957" style="stroke:#334E68;stroke-width:1.5;stroke-dasharray:7,7;" fill="none" id="pr03-to-q01"/><polygon points="166.35,460.957,170.35,451.957,166.35,455.957,162.35,451.957,166.35,460.957" fill="#334E68" style="stroke:#334E68;stroke-width:1.5;stroke-linejoin:miter;stroke-miterlimit:10;"/><text x="148.99" y="407.852" fill="#000" font-size="14" textLength="160.378" font-family="Arial">enables quality control</text></g><!--link pr03 to q03--><g class="link" data-entity-1="ent0016" data-entity-2="ent0024" id="lnk58" data-source-line="96" data-link-type="dependency"><path d="M520.97,386.527 C520.97,408.307 520.97,433.897 520.97,455.657" style="stroke:#334E68;stroke-width:1.5;stroke-dasharray:7,7;" fill="none" id="pr03-to-q03"/><polygon points="520.97,460.657,524.97,451.657,520.97,455.657,516.97,451.657,520.97,460.657" fill="#334E68" style="stroke:#334E68;stroke-width:1.5;stroke-linejoin:miter;stroke-miterlimit:10;"/><text x="348.97" y="419.592" fill="#000" font-size="14" textLength="171.999" font-family="Arial">enables waste recording</text></g><!--link pr04 to r02--><g class="link" data-entity-1="ent0017" data-entity-2="ent0049" id="lnk59" data-source-line="97" data-link-type="dependency"><path d="M830.88,359.857 C892.73,359.857 963.43,359.857 963.43,359.857 C963.43,359.857 963.43,611.207 963.43,695.817" style="stroke:#334E68;stroke-width:1.5;stroke-dasharray:7,7;" fill="none" id="pr04-to-r02"/><polygon points="963.43,700.817,967.43,691.817,963.43,695.817,959.43,691.817,963.43,700.817" fill="#334E68" style="stroke:#334E68;stroke-width:1.5;stroke-linejoin:miter;stroke-miterlimit:10;"/><text x="964.43" y="460.062" fill="#000" font-size="14" textLength="96.161" font-family="Arial">provides data</text></g><!--link q04 to r02--><g class="link" data-entity-1="ent0025" data-entity-2="ent0049" id="lnk60" data-source-line="98" data-link-type="dependency"><path d="M663,514.027 C663,576.637 663,727.857 663,727.857 C663,727.857 839.96,727.857 945.51,727.857" style="stroke:#334E68;stroke-width:1.5;stroke-dasharray:7,7;" fill="none" id="q04-to-r02"/><polygon points="950.51,727.857,941.51,723.857,945.51,727.857,941.51,731.857,950.51,727.857" fill="#334E68" style="stroke:#334E68;stroke-width:1.5;stroke-linejoin:miter;stroke-miterlimit:10;"/><text x="565.84" y="723.852" fill="#000" font-size="14" textLength="133.547" font-family="Arial">provides indicators</text></g><!--link m06 to r03--><g class="link" data-entity-1="ent0037" data-entity-2="ent0050" id="lnk61" data-source-line="99" data-link-type="dependency"><path d="M2274,626.467 C2274,663.927 2274,727.857 2274,727.857 C2274,727.857 1547.08,727.857 1299.06,727.857" style="stroke:#334E68;stroke-width:1.5;stroke-dasharray:7,7;" fill="none" id="m06-to-r03"/><polygon points="1294.06,727.857,1303.06,731.857,1299.06,727.857,1303.06,723.857,1294.06,727.857" fill="#334E68" style="stroke:#334E68;stroke-width:1.5;stroke-linejoin:miter;stroke-miterlimit:10;"/><text x="1721.72" y="723.852" fill="#000" font-size="14" textLength="112.779" font-family="Arial">provides history</text></g><!--link m07 to r03--><g class="link" data-entity-1="ent0038" data-entity-2="ent0050" id="lnk62" data-source-line="100" data-link-type="dependency"><path d="M1212.85,626.717 C1212.85,648.487 1212.85,674.077 1212.85,695.847" style="stroke:#334E68;stroke-width:1.5;stroke-dasharray:7,7;" fill="none" id="m07-to-r03"/><polygon points="1212.85,700.847,1216.85,691.847,1212.85,695.847,1208.85,691.847,1212.85,700.847" fill="#334E68" style="stroke:#334E68;stroke-width:1.5;stroke-linejoin:miter;stroke-miterlimit:10;"/><text x="1099.85" y="659.772" fill="#000" font-size="14" textLength="112.779" font-family="Arial">provides history</text></g><g class="caption" data-source-line="22"><text x="815.543" y="792.852" fill="#000" font-size="14" textLength="761.913" font-family="Arial">Events are ordered by business flow; queries without state changes are reserved as Read Models for Step 3.</text></g><?plantuml-src bLRHZkes47tFLunkNra42R3qLce5kqkx3zjksTvMLUc3IGPYRM87sm7Hgl_UiHEuJaZKspSOpndFd3cUYNxdec2AvR1byVjUoL8a3pAJ2hvQtQyMguT0NpqItB4oCoifp8yiHrWephBkypV-5y9uuXtgb2NonCKUTYpJw9raNA0v5mXIcLHw1mkbvAbE9eecJxDv-_2NbCVl0hM6yN3g7QunDapiCrnAbQ2gOopdquVHgClDfbmxJS9mD9fvJg_42zit8yt3hnVByQsJ5sSy2XUJo7CfAXVuEm1Ojhb-UbnDYMk0TMLK0XMCm-0VBu2wPEj2D1n7P7XbIMBfTQZ0S4EERmOB2E6EAjqHoy140czuA57428yoPrp0qn65qK7C2iFbvIymPVj15MC2spDiIyqTpxjCdhu1Yg0uQZXnwbXfG1jc4EAKqiCAgr2ZEXAOQRgS9V0Y4ym8JzMwhA8X9IaBC1AsqXX9yk6sGieX22vSVNYGUOug9ft1azYJAQViFjYWnTZHy9aKt_TP74gkpXlnLcvpRWmc3XEFnYJhrJASBPlG7-G94cbJ5y0hB6mnbYHo1hhSwbXnHyz6M0h9IugjPCHF0eeJbpdFik_S7MbrntmnjqsnDzufla_DS7ZthJly2ANG1SPynmbTA1aJhxPbrwAV4ogIcxDhroAsvrN9ORlaJqJoHgnnpxMnhN9khA_AjSnm8nPQyxsu-eRTlbNaHMbIcqlCp1KGzGFWLSaTjvTyAX8FCl4WxCe8yK7NErFeco9dYdpJfC7FcftWXSBRyQCTINHlKZhjL4H5RQ9yY7tsM7UJVbgLLuaMgfSv7xva9avlM2Tm3vMVaoDTalvprdrtzF_WFiM4zZbsXLpfivbLnh1XZ2fZr30scVwvP1a9SG2_SyoIWUFwDqPLLxTEsZJN_iImfaMWMpKUUkcrJuYURo4rhufxO5bSPjVw3b_0hSlhviOUKbqzn6TYfIsLxhXnqesyb4Xpp0NPY4SySbRrnprS-wxh65Clni7loS6rvE1tX6vqfkZMDF5DqqQ7w3MZqGCQhu9J8RG0gYwzq6WtIDCghdirRVVgXSKfpVGR8UTzNVgfGENgf3VmAwEdiCtQVETzVVAn2q6B9pjRuWnvNA7H5q0pL6OZlaTXRLTaJwiy3koRj-j19FNhQOUOzkaBxJxaH_GPlQbwresczUnMsd-WxxlHpnfe-iAnfjeUEHJaJ908i_DW8yY6tAxPdQ8DIhiAXPPgODL9MpMzhAJGMqcvhyFSwJ3tTPYxmP3xEioT3bkcwMsicJDDVDEzCqtR9flIS5ZTtnZjMD1N8Acu4ksiBLhllLUkxKxsJk6c6BgX3GLQJlv8UK9l-izBydPeKhfkgr_EwAjMk2Kr3bY7tSxYe1h8hHCQ2C6Xmqwa1dc7tOxnm0riozp1VKfGGIGD6ZNrL8hf0rJ9p7UBFBUJdP6ra8ZamEqDwsQh_MW_Heuy8Jzw9ImuT9_nwz0ChF0hZyZtI6cSI7KEhBBxZ_y5?></g></svg>